# xmcd
#
# Track frame offsets:
#	150
#	13955
#	27012
#	51030
#	71630
#	86182
#	108962
#	127325
#	147660
#	167667
#	189632
#	198260
#	227560
#	254980
#	275487
#
# Disc length: 4338 seconds
#
# Revision: 1
# Processed by: cddbd v1.5.1PL0 Copyright (c) Steve Scherf et al.
# Submitted via: CDex 1.50Beta5
#
DISCID=e610f00f
DTITLE=ASHKENAZY - ashkenzy favorite piano pieces
DYEAR=1900
DGENRE=Classical
TTITLE0=エリーゼのために
TTITLE1=シューマン:トロイメライ
TTITLE2=ショパン:雨だれ
TTITLE3=ベートーヴェン:ソナチネ第1楽章
TTITLE4=同 第2楽章
TTITLE5=ベートーヴェン:悲愴
TTITLE6=ショパン:夜想曲第2番変ホ長調
TTITLE7=ムソルグスキー:古城
TTITLE8=ショパン:別れの曲
TTITLE9=ショパン:幻想即興曲
TTITLE10=ショパン:子犬のワルツ
TTITLE11=シューマン:アラベスク
TTITLE12=ラヴェル:亡き王女のためのパヴァーヌ
TTITLE13=ラフマニノフ:鐘
TTITLE14=リスト:メフィスト:ワルツ第1番
EXTD=
EXTT0=
EXTT1=
EXTT2=
EXTT3=
EXTT4=
EXTT5=
EXTT6=
EXTT7=
EXTT8=
EXTT9=
EXTT10=
EXTT11=
EXTT12=
EXTT13=
EXTT14=
PLAYORDER=
